HIERARCHY
ROOT root     
{
	OFFSET 0.0000 0.0000 0.0000
	CHANNELS 6 Xposition Yposition Zposition Zrotation Yrotation Xrotation
	JOINT pelvis   
	{
		OFFSET 0.0000 0.0000 0.0000
		CHANNELS 3 Zrotation Yrotation Xrotation
		JOINT thorax   
		{
			OFFSET 0.0000 23.0750 -5.0000
			CHANNELS 3 Zrotation Yrotation Xrotation
			JOINT rclavicle
			{
				OFFSET 0.0000 28.0009 0.0000
				CHANNELS 3 Zrotation Yrotation Xrotation
				JOINT rhumerus 
				{
					OFFSET -18.5725 5.5939 0.0000
					CHANNELS 3 Zrotation Yrotation Xrotation
					JOINT rradius  
					{
						OFFSET -24.8459 0.0000 0.0000
						CHANNELS 3 Zrotation Yrotation Xrotation
						JOINT rhand    
						{
							OFFSET -24.5477 0.0000 0.0000
							CHANNELS 3 Zrotation Yrotation Xrotation
							End Site
							{
								OFFSET -8.1826 0.0000 0.0000
							}
						}
					}
				}
			}
			JOINT lclavicle
			{
				OFFSET 0.0000 28.0009 0.0000
				CHANNELS 3 Zrotation Yrotation Xrotation
				JOINT lhumerus 
				{
					OFFSET 18.5725 5.5939 0.0000
					CHANNELS 3 Zrotation Yrotation Xrotation
					JOINT lradius  
					{
						OFFSET 24.8459 0.0000 0.0000
						CHANNELS 3 Zrotation Yrotation Xrotation
						JOINT lhand    
						{
							OFFSET 24.5477 0.0000 0.0000
							CHANNELS 3 Zrotation Yrotation Xrotation
							End Site
							{
								OFFSET 8.1826 0.0000 0.0000
							}
						}
					}
				}
			}
			JOINT head     
			{
				OFFSET 0.0000 35.2030 0.0000
				CHANNELS 3 Zrotation Yrotation Xrotation
				End Site
				{
					OFFSET 0.0000 11.7343 0.0000
				}
			}
		}
		JOINT rfemur   
		{
			OFFSET -8.2817 0.0000 0.0000
			CHANNELS 3 Zrotation Yrotation Xrotation
			JOINT rtibia   
			{
				OFFSET 0.0000 -43.3627 0.0000
				CHANNELS 3 Zrotation Yrotation Xrotation
				JOINT rfoot    
				{
					OFFSET 0.0000 -38.2947 0.0000
					CHANNELS 3 Zrotation Yrotation Xrotation
					JOINT rtoes    
					{
						OFFSET 0.0000 0.0000 16.6054
						CHANNELS 3 Zrotation Yrotation Xrotation
						End Site
						{
							OFFSET 0.0000 0.0000 5.5351
						}
					}
				}
			}
		}
		JOINT lfemur   
		{
			OFFSET 8.2817 0.0000 0.0000
			CHANNELS 3 Zrotation Yrotation Xrotation
			JOINT ltibia   
			{
				OFFSET 0.0000 -43.3627 0.0000
				CHANNELS 3 Zrotation Yrotation Xrotation
				JOINT lfoot    
				{
					OFFSET 0.0000 -38.2947 0.0000
					CHANNELS 3 Zrotation Yrotation Xrotation
					JOINT ltoes    
					{
						OFFSET 0.0000 0.0000 16.6054
						CHANNELS 3 Zrotation Yrotation Xrotation
						End Site
						{
							OFFSET 0.0000 0.0000 5.5351
						}
					}
				}
			}
		}
	}
}
MOTION
Frames: 19
Frame Time: .0333333
-43.783 88.724 -0.5345 31.3469 85.6789 50.6961 0 -0 0 2.8867 -4.10387 -11.0275 26.5152 -4.89891 -2.06637e-05 47.9474 18.1376 13.6127 -0 52.0636 -0 -0.986086 4.34277 -0.0373997 -26.3353 10.5469 -6.92942e-06 -31.2736 -4.14995 6.11166 0 -51.0344 0 6.28558 -4.07696 -0.223901 -6.00272 2.03498 -2.73154 -0.934072 -2.60534 -12.6293 -0 -0 14.4874 -7.14831e-09 0.00380001 10.2717 0.000699996 -1.2628e-10 -57.2514 -1.67765 8.98084 -28.9758 -0 -0 50.8921 9.89316e-06 16.6584 3.04754 0.911305 1.66078e-06 -34.0562 
-42.829 88.882 -0.5304 28.7237 85.1369 48.1862 0 -0 0 2.41517 -3.59561 -10.9046 26.2943 -4.62252 -2.0736e-05 48.1049 19.5366 15.2291 -0 52.0728 -0 -0.777299 4.7685 -0.0324 -26.4153 10.5709 -1.77232e-05 -31.1152 -3.88744 5.15393 0 -49.165 0 6.35793 -3.95316 -0.219595 -6.13166 2.14333 -3.09172 -1.2551 -2.597 -12.0781 -0 -0 14.1179 1.88483e-07 0.632494 11.222 0.123099 5.46292e-07 -57.9079 -2.24391 9.22268 -29.9728 -0 -0 49.5451 3.12673e-06 16.3709 2.22072 0.652207 1.54126e-07 -33.8965 
-41.866 89.023 -0.5271 26.6782 84.62 46.2552 0 -0 0 1.96075 -3.12567 -10.7853 26.071 -4.37415 2.1606e-05 48.23 20.9196 16.853 -0 52.1809 -0 -0.553096 5.17391 -0.0249998 -26.4806 10.5829 -2.95306e-05 -30.9488 -3.5997 4.13945 0 -47.3328 0 6.41894 -3.77444 -0.211704 -6.23853 2.24927 -3.48837 -1.56827 -2.58108 -11.5369 -0 -0 13.7833 7.84334e-07 1.23175 12.1023 0.258299 3.61078e-07 -58.5593 -2.76064 9.37848 -30.9152 -0 -0 48.0374 -5.23136e-07 16.0161 1.52119 0.436609 -2.03033e-06 -33.762 
-40.896 89.147 -0.5232 25.0037 84.1529 44.7005 0 -0 0 1.53098 -2.69857 -10.6793 25.8466 -4.15653 -6.67392e-06 48.3183 22.2858 18.4707 -4.36615e-07 52.3864 -8.87583e-07 -0.305001 5.54266 -0.0148001 -26.5287 10.5798 3.24383e-05 -30.7773 -3.28284 3.0739 0 -45.5446 0 6.45782 -3.54087 -0.199795 -6.32185 2.3505 -3.91806 -1.86619 -2.5435 -11.0106 -0 -0 13.4784 5.4703e-06 1.77984 12.909 0.397704 1.81387e-06 -59.2926 -3.21759 9.44746 -31.8142 -0 -0 46.3838 1.76663e-06 15.6127 0.959191 0.268003 2.58587e-07 -33.6217 
-39.921 89.252 -0.5185 23.664 83.7332 43.4933 0 -0 0 1.12419 -2.3202 -10.5918 25.6156 -3.95165 -2.28849e-05 48.3815 23.6059 20.0308 -4.42147e-07 52.6986 -8.92691e-07 -0.0060001 5.85758 -0.00029998 -26.5584 10.5783 8.70092e-06 -30.6003 -2.96702 1.97407 3.11865e-07 -43.7905 -7.75979e-07 6.47271 -3.26006 -0.184399 -6.37872 2.44574 -4.37702 -2.14829 -2.4815 -10.5061 -0 -0 13.2037 1.16599e-05 2.26954 13.6414 0.5355 1.18717e-06 -60.1865 -3.61401 9.43059 -32.6733 -0 -0 44.601 -1.77682e-06 15.1879 0.528594 0.143505 8.25071e-07 -33.459 
-38.943 89.337 -0.512 22.542 83.3624 42.5243 0 -0 0 0.742896 -1.99364 -10.5312 25.3827 -3.76884 -5.44617e-06 48.4138 24.8921 21.5277 -4.49465e-07 53.1033 -8.99472e-07 0.344906 6.11483 0.0184005 -26.5672 10.5738 4.14512e-05 -30.4205 -2.6466 0.842202 0 -42.0748 0 6.46274 -2.9411 -0.166102 -6.40799 2.53282 -4.86008 -2.40975 -2.38585 -10.0294 -0 -0 12.9593 -2.17e-05 2.69097 14.3122 0.665706 -4.87736e-06 -61.2892 -3.94969 9.33645 -33.5039 -0 -0 42.7079 -8.95572e-07 14.7681 0.208501 0.0550005 1.65493e-07 -33.2971 
-37.962 89.402 -0.5034 21.6119 83.0645 41.765 0 -0 0 0.386198 -1.72005 -10.5014 25.1509 -3.60669 6.68477e-06 48.4173 26.1412 22.9387 -4.58479e-07 53.587 -9.07875e-07 0.752405 6.31407 0.0415007 -26.554 10.5688 7.2265e-05 -30.2375 -2.32826 -0.314283 0 -40.3978 0 6.43563 -2.59758 -0.146097 -6.40879 2.61048 -5.36138 -2.64809 -2.25517 -9.58727 -0 -0 12.7519 -1.23824e-05 3.04556 14.9389 0.785795 -3.08996e-06 -62.6152 -4.22945 9.17653 -34.3117 -0 -0 40.7188 8.04083e-08 14.3753 -0.0348001 -0.00890002 -8.52332e-09 -33.1774 
-36.979 89.446 -0.4924 20.834 82.8155 41.1825 0 -0 0 0.0521992 -1.49881 -10.5017 24.9202 -3.4604 -3.87111e-06 48.3993 27.3429 24.2379 -0 54.1479 -0 1.21819 6.4594 0.0686989 -26.5174 10.5741 6.61551e-05 -30.052 -2.03284 -1.48222 0 -38.7525 0 6.40599 -2.24584 -0.125699 -6.38102 2.67777 -5.87419 -2.86187 -2.09403 -9.18195 -0 -0 12.5903 -8.32902e-06 3.34376 15.5356 0.89649 -1.90348e-06 -64.1369 -4.46199 8.96699 -35.097 -0 -0 38.6384 -8.56472e-07 14.0209 -0.241706 -0.0604004 -2.85333e-07 -33.1479 
-35.99 89.467 -0.4785 20.1557 82.6272 40.7167 0 -0 0 -0.258797 -1.32333 -10.5308 24.6936 -3.33686 5.92151e-06 48.3593 28.5043 25.4262 -0 54.7639 -0 1.72317 6.56312 0.098798 -26.457 10.5776 -1.28697e-06 -29.8673 -1.7419 -2.65963 2.41295e-07 -37.1516 -7.17992e-07 6.38971 -1.89935 -0.105997 -6.32574 2.73366 -6.38933 -3.04775 -1.90942 -8.81296 -0 -0 12.4843 1.16769e-05 3.6004 16.1163 1.0006 -6.89635e-06 -65.7889 -4.65515 8.72837 -35.8531 -0 -0 36.4678 1.44736e-06 13.7035 -0.4465 -0.108899 -4.18649e-07 -33.286 
-34.993 89.463 -0.4611 19.5217 82.4977 40.2992 0 -0 0 -0.547198 -1.1843 -10.579 24.4729 -3.23186 -8.18085e-06 48.2977 29.6185 26.487 -0 55.4283 -0 2.25267 6.6359 0.130599 -26.3728 10.5774 -9.94191e-05 -29.6855 -1.45378 -3.8362 2.27035e-07 -35.6065 -7.06991e-07 6.40506 -1.57116 -0.0878992 -6.24435 2.77788 -6.89781 -3.20428 -1.71545 -8.47132 -0 -0 12.4461 3.93035e-06 3.83857 16.6886 1.1038 -8.62714e-06 -67.4816 -4.8182 8.48401 -36.5617 -0 -0 34.2039 1.08008e-06 13.4117 -0.672805 -0.160398 1.58325e-06 -33.6494 
-33.983 89.43 -0.4399 18.8631 82.4064 39.8543 0 -0 0 -0.809398 -1.0689 -10.6366 24.2432 -3.13739 1.09683e-05 48.2352 30.6631 27.4005 -0 56.1362 -0 2.80066 6.68753 0.163699 -26.2611 10.6048 -4.58201e-05 -29.5134 -1.22029 -4.98784 0 -34.0957 0 6.47033 -1.27545 -0.0721051 -6.14039 2.81237 -7.3909 -3.32782 -1.52643 -8.14856 -0 -0 12.4876 2.25426e-05 4.08189 17.2511 1.21238 -7.81056e-07 -69.1136 -4.95714 8.25576 -37.2059 -0 -0 31.8419 4.22652e-06 13.1212 -0.929391 -0.216599 -6.99788e-07 -34.2038 
-32.949 89.367 -0.4124 18.0848 82.3529 39.2567 0 -0 0 -1.04039 -0.959498 -10.6808 24.0261 -3.07153 -1.11962e-05 48.1312 31.6736 28.2175 -0 56.8691 -0 3.29568 6.73218 0.193905 -26.1283 10.5803 4.04857e-06 -29.3486 -0.902816 -6.1273 2.02045e-07 -32.7101 -6.88477e-07 6.59437 -1.00861 -0.0580989 -6.01565 2.83832 -7.85441 -3.41353 -1.35429 -7.80749 -0 -0 12.604 2.62411e-05 4.35201 17.8048 1.33299 5.01086e-06 -70.6085 -5.0806 8.08764 -37.7473 -0 -0 29.3822 4.32699e-06 12.787 -1.18216 -0.268295 1.59917e-06 -35.2035 
-31.887 89.268 -0.3791 17.0923 82.3205 38.4113 0 -0 0 -1.23427 -0.840692 -10.7099 23.7881 -3.01054 1.32134e-05 48.0346 32.5993 28.8837 -5.43612e-07 57.6348 -9.88114e-07 3.76983 6.77199 0.223094 -25.9684 10.6077 -2.95424e-06 -29.2061 -0.668773 -7.20784 0 -31.3701 0 6.78514 -0.785694 -0.0466003 -5.87359 2.8614 -8.2809 -3.45928 -1.2123 -7.44831 -0 -0 12.8093 -1.6829e-05 4.66926 18.3248 1.47097 -3.15264e-06 -71.8909 -5.18884 7.98925 -38.1819 -0 -0 26.8541 6.52986e-06 12.378 -1.41004 -0.3094 -6.44921e-08 -36.3215 
-30.787 89.13 -0.3367 15.784 82.2929 37.1807 0 -0 0 -1.38056 -0.69529 -10.6935 23.5498 -2.96814 -1.79518e-05 47.8994 33.4705 29.4516 -0 58.4255 -0 4.15535 6.81144 0.247398 -25.7946 10.589 -4.33555e-06 -29.0723 -0.344524 -8.23787 0 -30.1863 0 7.03507 -0.589599 -0.0362005 -5.71596 2.88428 -8.65604 -3.45837 -1.104 -7.01682 -0 -0 13.0782 2.43441e-05 5.04244 18.8119 1.62967 -1.46215e-05 -72.9549 -5.28747 8.0089 -38.4756 -0 -0 24.293 1.16683e-06 11.8423 -1.53595 -0.322006 -2.73244e-06 -37.8285 
-29.647 88.95 -0.2868 14.1143 82.265 35.523 0 -0 0 -1.48292 -0.513301 -10.6436 23.2955 -2.93237 2.43605e-06 47.7499 34.2609 29.9005 -0 59.2443 -0 4.46904 6.84895 0.267598 -25.597 10.585 -3.34381e-05 -28.96 -0.0175827 -9.18809 0 -29.1244 0 7.33127 -0.421201 -0.0269999 -5.54002 2.91421 -8.96785 -3.41923 -1.03741 -6.52036 -0 -0 13.4173 -5.0452e-06 5.48277 19.2318 1.81091 7.83715e-06 -73.8123 -5.38087 8.14914 -38.6463 -0 -0 21.777 2.13272e-07 11.1581 -1.51431 -0.298702 -8.99716e-07 -39.4263 
-28.463 88.725 -0.2298 12.0893 82.2209 33.434 0 -0 0 -1.5425 -0.293506 -10.5527 23.0308 -2.90537 -7.24748e-06 47.5758 34.9747 30.2453 -6.06274e-07 60.0945 -1.04812e-06 4.69855 6.87992 0.282605 -25.3806 10.6152 -1.60458e-05 -28.866 0.288145 -10.0381 1.66755e-07 -28.1829 -6.64301e-07 7.65796 -0.278099 -0.0186002 -5.34161 2.9576 -9.20833 -3.34913 -1.01301 -5.93849 -0 -0 13.8095 -2.99759e-05 5.99065 19.5736 2.01352 3.15574e-05 -74.5338 -5.47452 8.42208 -38.7105 -0 -0 19.4072 -6.62941e-06 10.3081 -1.29535 -0.235601 -1.81926e-06 -41.0822 
-27.236 88.458 -0.1685 9.81916 82.145 31.035 0 -0 0 -1.57661 -0.0402015 -10.4403 22.7714 -2.88274 -2.06446e-06 47.3639 35.6053 30.4868 -7.58188e-07 60.9749 -4.46384e-07 4.84327 6.89781 0.292099 -25.1498 10.6411 7.36589e-05 -28.7788 0.650218 -10.7832 0 -27.4166 0 7.98735 -0.138798 -0.00969999 -5.11058 3.01759 -9.36306 -3.26816 -1.0334 -5.27992 -0 -0 14.2494 1.28442e-05 6.56763 19.8262 2.2362 3.48106e-05 -75.215 -5.5701 8.80519 -38.6983 -0 -0 17.2849 8.56758e-08 9.31244 -0.840407 -0.137799 -7.30452e-07 -42.7803 
-25.974 88.152 -0.1071 7.4821 82.0351 28.5197 0 -0 0 -1.60968 0.231095 -10.3289 22.533 -2.86166 -7.53381e-06 47.1088 36.1453 30.6262 -0 61.8909 -0 4.91514 6.89548 0.296297 -24.9089 10.6669 8.64708e-05 -28.6857 1.06681 -11.41 0 -26.8345 0 8.2968 0.00710006 0.000500005 -4.83412 3.09703 -9.42315 -3.20239 -1.0996 -4.56395 -0 -0 14.7322 2.22486e-05 7.21295 19.9855 2.47676 -2.04821e-05 -75.9716 -5.65903 9.24445 -38.6485 -0 -0 15.5067 3.8801e-07 8.22727 -0.140796 -0.0204003 -6.07966e-08 -44.4668 
-24.684 87.813 -0.0499 5.25991 81.9116 26.0853 0 -0 0 -1.66884 0.496491 -10.2388 22.3327 -2.84246 7.31309e-06 46.8092 36.5934 30.6586 -0 62.8394 -0 4.93269 6.86785 0.296205 -24.6564 10.7238 8.28746e-06 -28.5781 1.48058 -11.9111 0 -26.4034 0 8.5705 0.157304 0.0118005 -4.49926 3.19815 -9.38635 -3.1774 -1.21161 -3.81755 -0 -0 15.2581 5.10728e-05 7.92604 20.0625 2.73441 4.59604e-05 -76.9161 -5.72965 9.67655 -38.599 -0 -0 14.1696 1.06497e-07 7.12067 0.774288 0.0967001 -6.06934e-07 -46.0396 
